<svg width="16" height="16" viewBox="0 0 16 16" fill="none" xmlns="http://www.w3.org/2000/svg">
<path fill-rule="evenodd" clip-rule="evenodd" d="M8.1486 0.507568C9.15806 0.543624 10.2036 0.543624 11.213 0.579674C12.1143 0.615724 12.9435 0.759934 13.7367 1.22861C14.7462 1.8415 15.359 2.7428 15.5754 3.89646C15.6835 4.58145 15.7196 5.30248 15.7556 5.98748C15.7917 7.50166 15.7556 9.01585 15.7556 10.53C15.7556 11.3232 15.7196 12.1163 15.4672 12.8734C14.9625 14.3515 13.917 15.2528 12.4028 15.5413C11.7178 15.6855 10.9967 15.6855 10.3117 15.7215C8.79753 15.7576 7.3194 15.7215 5.8052 15.7215C5.01205 15.7215 4.2189 15.6855 3.46181 15.4331C1.98366 14.9284 1.08236 13.8829 0.79394 12.3687C0.649733 11.6837 0.649733 10.9627 0.61368 10.2777C0.577626 8.76348 0.61368 7.2493 0.61368 5.73511C0.61368 4.94197 0.649733 4.14883 0.902098 3.39173C1.40683 1.91359 2.45234 1.0123 3.96653 0.723883C4.65153 0.579679 5.37257 0.579679 6.05757 0.543624C6.74256 0.507568 7.42755 0.507568 8.1486 0.507568ZM14.3859 7.9705C14.3499 7.9705 14.3859 7.9705 14.3859 7.9705C14.3499 7.35757 14.3499 6.78069 14.3499 6.16777C14.3499 5.5909 14.3138 5.01403 14.2417 4.43716C14.0975 3.1392 13.3404 2.27389 12.0784 2.02152C11.4295 1.8773 10.7084 1.8773 10.0594 1.8773C8.76142 1.84124 7.49951 1.84124 6.20155 1.8773C5.55257 1.8773 4.90358 1.91335 4.29065 2.02152C3.20901 2.20179 2.45187 2.81471 2.12738 3.89634C2.01922 4.25689 1.98316 4.61743 1.94711 4.97797C1.91105 6.34804 1.91105 7.71811 1.91105 9.08818C1.91105 9.95348 1.94711 10.8548 2.01922 11.7202C2.12738 13.0181 2.92058 13.9195 4.21855 14.1358C4.86753 14.2439 5.55257 14.28 6.2376 14.28C7.49951 14.3161 8.76142 14.28 10.0594 14.28C10.6363 14.28 11.2131 14.244 11.79 14.1718C12.3308 14.1358 12.8356 13.9555 13.2682 13.595C13.9893 13.0181 14.2417 12.261 14.2778 11.3957C14.3499 10.314 14.3499 9.16028 14.3859 7.9705Z" fill="#081420"/>
<path fill-rule="evenodd" clip-rule="evenodd" d="M12.0446 8.11675C12.0446 10.28 10.314 12.0106 8.15074 12.0106C5.98746 12.0106 4.25684 10.28 4.25684 8.08071C4.25684 5.9535 6.02351 4.2229 8.18679 4.2229C10.314 4.2229 12.0446 5.9535 12.0446 8.11675ZM8.14957 10.6405C9.51964 10.6405 10.6734 9.48679 10.6734 8.11673C10.6734 6.74667 9.51964 5.59293 8.14957 5.59293C6.74343 5.59293 5.62574 6.74667 5.62574 8.11673C5.58968 9.48679 6.74343 10.6405 8.14957 10.6405Z" fill="#081420"/>
<path d="M13.087 4.03916C13.087 4.54364 12.6906 4.97604 12.1861 4.97604C11.6817 4.97604 11.2493 4.54364 11.2853 4.03916C11.2853 3.53468 11.6817 3.13831 12.1861 3.13831C12.6906 3.13831 13.087 3.53468 13.087 4.03916Z" fill="#081420"/>
</svg>
