<svg width="16" height="15" viewBox="0 0 16 15" fill="none" xmlns="http://www.w3.org/2000/svg">
<path fill-rule="evenodd" clip-rule="evenodd" d="M15.2054 9.38382V14.9875H11.9331V9.75194C11.9331 8.44305 11.4832 7.5432 10.297 7.5432C9.39717 7.5432 8.86542 8.15674 8.62001 8.72938C8.5382 8.93389 8.4973 9.22021 8.4973 9.50652V14.9875H5.22507C5.22507 14.9875 5.26597 6.11161 5.22507 5.21175H8.4973V6.60244C8.4973 6.60244 8.4973 6.64333 8.4564 6.64333H8.4973V6.60244C8.94723 5.948 9.68349 4.96633 11.4423 4.96633C13.5693 4.96633 15.2054 6.39792 15.2054 9.38382ZM1.87046 0.50769C0.766348 0.50769 0.0302734 1.24376 0.0302734 2.1843C0.0302734 3.12483 0.725457 3.86091 1.82957 3.86091H1.87046C3.01547 3.86091 3.71065 3.12483 3.71065 2.1843C3.66976 1.24376 2.97457 0.50769 1.87046 0.50769ZM0.195111 14.9881H3.42645V5.21241H0.195111V14.9881Z" fill="#081420"/>
</svg>
